<svg width="1795" height="448" viewBox="0 0 1795 448" fill="none" xmlns="http://www.w3.org/2000/svg">
<path d="M476 448H324C314.452 448 305.295 444.207 298.544 437.456C291.793 430.705 288 421.548 288 412V64H192V220C192 229.548 188.207 238.705 181.456 245.456C174.705 252.207 165.548 256 156 256H16C11.7565 256 7.68687 254.314 4.68629 251.314C1.68571 248.313 0 244.243 0 240V208C0 203.757 1.68571 199.687 4.68629 196.686C7.68687 193.686 11.7565 192 16 192H128V36C128 26.4522 131.793 17.2955 138.544 10.5442C145.295 3.79285 154.452 0 164 0H316C325.548 0 334.705 3.79285 341.456 10.5442C348.207 17.2955 352 26.4522 352 36V384H448V228C448 218.452 451.793 209.295 458.544 202.544C465.295 195.793 474.452 192 484 192H624C628.243 192 632.313 193.686 635.314 196.686C638.314 199.687 640 203.757 640 208V240C640 244.243 638.314 248.313 635.314 251.314C632.313 254.314 628.243 256 624 256H512V412C512 421.548 508.207 430.705 501.456 437.456C494.705 444.207 485.548 448 476 448V448Z" fill="#009688"/>
<path d="M853.598 253.309H811.586V347H758.852V91.0625H853.949C884.184 91.0625 907.504 97.8008 923.91 111.277C940.316 124.754 948.52 143.797 948.52 168.406C948.52 185.867 944.711 200.457 937.094 212.176C929.594 223.777 918.168 233.035 902.816 239.949L958.188 344.539V347H901.586L853.598 253.309ZM811.586 210.594H854.125C867.367 210.594 877.621 207.254 884.887 200.574C892.152 193.777 895.785 184.461 895.785 172.625C895.785 160.555 892.328 151.062 885.414 144.148C878.617 137.234 868.129 133.777 853.949 133.777H811.586V210.594ZM1039.05 347H988.07V156.805H1039.05V347ZM985.082 107.586C985.082 99.9688 987.602 93.6992 992.641 88.7773C997.797 83.8555 1004.77 81.3945 1013.56 81.3945C1022.23 81.3945 1029.14 83.8555 1034.3 88.7773C1039.46 93.6992 1042.04 99.9688 1042.04 107.586C1042.04 115.32 1039.4 121.648 1034.12 126.57C1028.97 131.492 1022.11 133.953 1013.56 133.953C1005 133.953 998.09 131.492 992.816 126.57C987.66 121.648 985.082 115.32 985.082 107.586ZM1252.27 253.66C1252.27 282.957 1245.59 306.453 1232.23 324.148C1218.99 341.727 1201.06 350.516 1178.44 350.516C1159.22 350.516 1143.7 343.836 1131.86 330.477V420.125H1081.06V156.805H1128.17L1129.93 175.438C1142.23 160.672 1158.29 153.289 1178.09 153.289C1201.53 153.289 1219.75 161.961 1232.76 179.305C1245.77 196.648 1252.27 220.555 1252.27 251.023V253.66ZM1201.47 249.969C1201.47 232.273 1198.3 218.621 1191.98 209.012C1185.77 199.402 1176.68 194.598 1164.73 194.598C1148.79 194.598 1137.84 200.691 1131.86 212.879V290.75C1138.07 303.289 1149.14 309.559 1165.08 309.559C1189.34 309.559 1201.47 289.695 1201.47 249.969ZM1455.12 253.66C1455.12 282.957 1448.44 306.453 1435.08 324.148C1421.84 341.727 1403.91 350.516 1381.29 350.516C1362.07 350.516 1346.55 343.836 1334.71 330.477V420.125H1283.91V156.805H1331.02L1332.78 175.438C1345.08 160.672 1361.14 153.289 1380.94 153.289C1404.38 153.289 1422.6 161.961 1435.61 179.305C1448.62 196.648 1455.12 220.555 1455.12 251.023V253.66ZM1404.32 249.969C1404.32 232.273 1401.16 218.621 1394.83 209.012C1388.62 199.402 1379.54 194.598 1367.58 194.598C1351.64 194.598 1340.69 200.691 1334.71 212.879V290.75C1340.92 303.289 1352 309.559 1367.93 309.559C1392.19 309.559 1404.32 289.695 1404.32 249.969ZM1540.38 347H1489.4V77H1540.38V347ZM1669.93 350.516C1642.04 350.516 1619.3 341.961 1601.72 324.852C1584.26 307.742 1575.53 284.949 1575.53 256.473V251.551C1575.53 232.449 1579.22 215.398 1586.61 200.398C1593.99 185.281 1604.42 173.68 1617.89 165.594C1631.49 157.391 1646.96 153.289 1664.3 153.289C1690.32 153.289 1710.77 161.492 1725.65 177.898C1740.65 194.305 1748.15 217.566 1748.15 247.684V268.426H1627.04C1628.68 280.848 1633.6 290.809 1641.8 298.309C1650.12 305.809 1660.61 309.559 1673.27 309.559C1692.84 309.559 1708.13 302.469 1719.14 288.289L1744.11 316.238C1736.49 327.02 1726.18 335.457 1713.17 341.551C1700.16 347.527 1685.75 350.516 1669.93 350.516ZM1664.12 194.422C1654.05 194.422 1645.84 197.82 1639.52 204.617C1633.3 211.414 1629.32 221.141 1627.56 233.797H1698.23V229.754C1697.99 218.504 1694.95 209.832 1689.09 203.738C1683.23 197.527 1674.91 194.422 1664.12 194.422Z" fill="#009688"/>
</svg>
